<svg width="72" height="72" viewBox="0 0 72 72" fill="none" xmlns="http://www.w3.org/2000/svg">
<g filter="url(#filter0_d_2_473)">
<mask id="mask0_2_473" style="mask-type:luminance" maskUnits="userSpaceOnUse" x="2" y="2" width="64" height="64">
<path d="M66 2H2V66H66V2Z" fill="white"/>
</mask>
<g mask="url(#mask0_2_473)">
<path d="M34 7.76249C42.55 7.76249 43.5625 7.8 46.9251 7.95C50.05 8.08749 51.7375 8.61251 52.8625 9.05C54.35 9.625 55.4251 10.325 56.5375 11.4375C57.6625 12.5625 58.35 13.625 58.9251 15.1125C59.3625 16.2375 59.8875 17.9375 60.0251 21.05C60.1751 24.4249 60.2125 25.4375 60.2125 33.9751C60.2125 42.5251 60.1751 43.5375 60.0251 46.9C59.8875 50.0251 59.3625 51.7125 58.9251 52.8375C58.35 54.3251 57.65 55.4 56.5375 56.5125C55.4125 57.6375 54.35 58.3251 52.8625 58.9C51.7375 59.3375 50.0375 59.8625 46.9251 60C43.55 60.15 42.5375 60.1875 34 60.1875C25.45 60.1875 24.4375 60.15 21.0751 60C17.95 59.8625 16.2625 59.3375 15.1375 58.9C13.65 58.3251 12.575 57.6251 11.4625 56.5125C10.3375 55.3875 9.65 54.3251 9.075 52.8375C8.63751 51.7125 8.11251 50.0125 7.975 46.9C7.825 43.5251 7.78751 42.5125 7.78751 33.9751C7.78751 25.4251 7.825 24.4125 7.975 21.05C8.11251 17.9249 8.63751 16.2375 9.075 15.1125C9.65 13.625 10.35 12.55 11.4625 11.4375C12.5875 10.3125 13.65 9.625 15.1375 9.05C16.2625 8.61251 17.9625 8.08749 21.0751 7.95C24.4375 7.8 25.45 7.76249 34 7.76249ZM34 2C25.3125 2 24.2251 2.0375 20.8125 2.1875C17.4125 2.3375 15.075 2.8875 13.05 3.675C10.9375 4.5 9.15 5.58749 7.375 7.375C5.58751 9.15 4.5 10.9375 3.675 13.0375C2.8875 15.075 2.3375 17.4 2.1875 20.8C2.0375 24.2249 2 25.3125 2 34C2 42.6875 2.0375 43.7751 2.1875 47.1875C2.3375 50.5875 2.8875 52.9251 3.675 54.95C4.5 57.0625 5.58751 58.85 7.375 60.6251C9.15 62.4 10.9375 63.5 13.0375 64.3125C15.075 65.1 17.4 65.65 20.8 65.8C24.2125 65.95 25.3 65.9875 33.9875 65.9875C42.6751 65.9875 43.7625 65.95 47.1751 65.8C50.5751 65.65 52.9125 65.1 54.9375 64.3125C57.0375 63.5 58.8251 62.4 60.6 60.6251C62.3751 58.85 63.4751 57.0625 64.2875 54.9625C65.0751 52.9251 65.6251 50.6 65.7751 47.2C65.9251 43.7875 65.9625 42.7 65.9625 34.0125C65.9625 25.3251 65.9251 24.2375 65.7751 20.8251C65.6251 17.4251 65.0751 15.0875 64.2875 13.0625C63.5 10.9375 62.4125 9.15 60.6251 7.375C58.85 5.6 57.0625 4.5 54.9625 3.68749C52.9251 2.9 50.6 2.35 47.2 2.2C43.7751 2.0375 42.6875 2 34 2Z" fill="white"/>
<path d="M34 17.5625C24.925 17.5625 17.5625 24.9251 17.5625 34C17.5625 43.0749 24.925 50.4375 34 50.4375C43.0749 50.4375 50.4374 43.0749 50.4374 34C50.4374 24.9251 43.0749 17.5625 34 17.5625ZM34 44.6625C28.1125 44.6625 23.3374 39.8875 23.3374 34C23.3374 28.1125 28.1125 23.3375 34 23.3375C39.8874 23.3375 44.6625 28.1125 44.6625 34C44.6625 39.8875 39.8874 44.6625 34 44.6625Z" fill="white"/>
<path d="M54.9249 16.9124C54.9249 19.0373 53.2 20.7498 51.0875 20.7498C48.9625 20.7498 47.25 19.0249 47.25 16.9124C47.25 14.7874 48.9751 13.0749 51.0875 13.0749C53.2 13.0749 54.9249 14.7999 54.9249 16.9124Z" fill="white"/>
</g>
</g>
<defs>
<filter id="filter0_d_2_473" x="0" y="0" width="71.9625" height="71.9875" filterUnits="userSpaceOnUse" color-interpolation-filters="sRGB">
<feFlood flood-opacity="0" result="BackgroundImageFix"/>
<feColorMatrix in="SourceAlpha" type="matrix" values="0 0 0 0 0 0 0 0 0 0 0 0 0 0 0 0 0 0 127 0" result="hardAlpha"/>
<feOffset dx="2" dy="2"/>
<feGaussianBlur stdDeviation="2"/>
<feComposite in2="hardAlpha" operator="out"/>
<feColorMatrix type="matrix" values="0 0 0 0 0 0 0 0 0 0 0 0 0 0 0 0 0 0 0.15 0"/>
<feBlend mode="normal" in2="BackgroundImageFix" result="effect1_dropShadow_2_473"/>
<feBlend mode="normal" in="SourceGraphic" in2="effect1_dropShadow_2_473" result="shape"/>
</filter>
</defs>
</svg>
